<mxfile host="app.diagrams.net" modified="2023-10-04T15:53:15.450Z" agent="Mozilla/5.0 (Windows NT 10.0; Win64; x64) AppleWebKit/537.36 (KHTML, like Gecko) Chrome/117.0.0.0 Safari/537.36" version="22.0.2" etag="I-LMGmdC-bQVjvccMJh_" type="github">
  <diagram name="Sayfa -1" id="XyX3VMG65FcEIAxDhD4U">
    <mxGraphModel>
      <root>
        <mxCell id="0" />
        <mxCell id="1" parent="0" />
      </root>
    </mxGraphModel>
  </diagram>
</mxfile>
